/* XPM */
static char *result[] = {
/* columns rows colors chars-per-pixel */
"64 64 6 1 ",
"  c #06131F",
". c #0D2B45",
"X c #203C56",
"o c #544E68",
"O c #8D697A",
"+ c #D08159",
/* pixels */
"ooO++++++OoOOOOOOOOoooo++ooXXX+oooooooOOOOOOOoooooOOOOOOOOOOoooo",
"ooooooooooooooOooooooooo+XXXXXXooooooOoooooooooooooooooooooooooo",
"oXooooooooooooooooooooXXXXX.XXXooXXooooXooooXXoXoooXooXXXXoooXXX",
".XXXXXXXXXXXXX.XXXXX.XXXXX..XXX.................XX.XXXXXXXXXXXXX",
".XXXXXXXXXXXXX.X......XXXXX.......................X.XXXXXXXXXXXX",
".....XX....... .XXX...XXXXXXX.XXXXXXXo.Xo...XX..XXX..XXXXXXXXXXX",
".................XXXXXX...XX....X.......XX.......XXX.......XXXXX",
"XX.XXX....XOOOOOOOOOOOOOOOOOOOOOOOOOOX..oX..XoOOOOOOOOOOOX.XOOOO",
"OOOOOOOOOOOOOOOOOOOOOOOOOOOOOOOOOOOOO+XXXX.XoOOOOOoooOOOOOO+++++",
"ooOOOOooOoooOOOOOOOooooooooo++OO+++OOOOXXXXoOoOOoooooooooooooooo",
"oooooooooooooooooooooooooooooooooooo+OoXXXXoOooooooooooooooooooo",
"ooooooooooooooooooOOOXoooooooooooooo+oOXXXXOoooooooooooooooooooo",
"ooooooooooooooooooooOOXoooooooooooooo+OX.XXOoooooooooooooooooooo",
"oooooooooooooooooooooOoXoooooooooooo+OOX.XXOooooooooooXooooooooo",
"oooooooooooooooooooooO+ooooooooooooo+OOX.XXOooooXoooooOooooooooo",
"oooooooooooooooooooooooXoooooooooooo+oOXXXXOooooOXoooooooooooooo",
"oooooooooooooooooooooooOoooooooooooooOOXoXXOOooooOoooooooooooooo",
"ooooooooooooooooooooooooooooOXXoooooooO.X..OooooooooooooooooooXo",
"oooooooooooooooooooooooooooooOOooooo+oO.X..OoooooooooooooooooOXo",
"oooooooooooooooooooooooooooooooooooo+OO.X..OOooooooooooooooooOoo",
"XXoooooooooooooooooooooooooooooooXXooOO....OOooXoooooooooooooooo",
"XXXXoXXXXooooooXXoooXooooooooooXXXXXXXO....OXXXXooooooXooooXXXXX",
"XXXXXXXXXXXXXXXXXXXXXXoXXXoXXoXXXXXXXX.....XXXXXXXXXXXXXXXXXXXXX",
"XXXXX        XXXX XXXXXXXXXXXXXXXXXXX  ....    XXXXX  XXXXXXXXXX",
"                                       ....  .   ..  ..      ...",
"                                     ....               ........",
"    ..                     XX..  ...  . .           .   ...    .",
"                   . .               ..             .... .......",
".. .   .Xooo. .Xoooooooooo.oX..Xoo..ooooooooooOOOOOOo.... XXOOOO",
"oooooooooooooooooooooXooooXoooooooooooooooooOOOOOOOOOOO.. XXOOOO",
"oooXXoXoooXoooooXXXoXXXXXXXXXXooooXXoooOOOOOOOOOOOOOOOOO. XXOOOO",
"XXXXXXXXXXXXXXXXXXXXXXXXXXXXXXXXXXXXXXoXXXXXXXXXXXXXXo+O. XXOOOO",
"XXXXXXXXXXXXXXXXXXXXXXXXXXXXXXXXXXXXXXXXXXXXXXXXXXXXXo+O. XXOOoo",
"XXXXXXXXXXXXXXXXXXXXXXXXXXXXXXXXXXXXXXXXXXXXXXXXXXXXXoOO. XXOOoo",
"XXXXXXXXXXXXXXXXXXXXXXXXXXXXXXXXXXXXXXXXXXXXX XXXXXXXoOO.. XoOoo",
"XXXXXXXXXXXXXXXXXXXXXXXXXXXXXXXXXXXXXXXXXXX. oXXXXXXXoOO..XXoOoo",
"XXXXXXXXXXXXXXXXXXXXXXXXXXXXXXXXXXXXXX.    .XXXXXXXXXoOO..XXoOoo",
"XXXXXXXXX.XXXXXXXXXXXXXXXXXXXXXX...    .XXXXXXXXXXXXXoOO. XXOOoo",
"XXXXXXXXXoXXXXXXXXXXXXXX........XXoooXXXXXXXXXXXXXXXooOO. XXOOoo",
"XXXXXXXXXXXXXXXXo.......oooXoooXXXXXXXXXXXXXXXXXXXXXooOO. XXoooo",
"XXXXXXXXXXXXXXXXooooXoXXXXXXXXXXXXXXXXXXXXXXXXXXXXXXooOO. XXoooo",
"XXXXXXXXXXXXXXXXXXXXXXXXXXXXXXXXXXXXXXXXXXXXX.XXXXXXXoOO. XXoooo",
"XXXXX.XXXXXXXXXXXXXXXXXXXX.XXXXXXXXXXXXXXXXX..XXXXXXoo+O..XXOOoo",
".......X...XXX.X...XXXXX.....XXX.XXX..XX.XX..........Xoo. XoOOoo",
"...............................XX...................XXoo..oOooOO",
"...... ........   ......  .. ......................XXXo....oOOOO",
"                                                  ....... ......",
"                                                    ...   ......",
"                                                     .   .......",
"                                                       .........",
" X       XXXXXXXXXXXXXXXXX .      ooooooooooooooooooOOOOOOOOOOOO",
"XXXXXXXXXXXXXXXXXXXXXXXXXX     oooooXXXXXXXXXXooooooOOOOOOOOOOOO",
"XXXXXXXXXXXXXXXXXXXXXXXXXX .  ooooXXXXXXXXXXXXXXooooOOOoOoooooOO",
".............XXXX......XXX    oooXXXXXXXXXXXXXXXoooooooooooooooo",
"........................XX    ooXXXXXXXXXXXXXXXXXXXXoooooooooooo",
"........................Xo    ooXXXXXXXXXXX.XoXXXXXoooooooXooooo",
"....... ...............XXo    ooXXXXXXXXoXoXXXXXXXXXoooooooooXoo",
"...... ................XXo    ooXXXXXXXXXXOoXXXXXXXoooooooooXOoo",
"...... X................XX    ooXXXX.XXXXXoOXXXXXXXXooooooooOooo",
".......X................oX    ooXXXXoXXXXXXXXXXXXXXXXXoooooooooo",
"......X.................oX    ooXXXXXXXXXXXXXXXXXXXXXXXooooooooo",
"........................XX    ooXXXXXXXXXXXXXXXXXXXXXXoooooooooo",
"........................XX    ooXXXXXXXXXXXXXXXXXXXoooXOOooooooo",
"........................XX    oooXXXXXXXXXXXXXXXXXXXXooooooooooo"
};
