/* XPM */
static char *result[] = {
/* columns rows colors chars-per-pixel */
"64 64 7 1 ",
"  c #0D2B45",
". c #203C56",
"X c #544E68",
"o c #8D697A",
"O c #D08159",
"+ c #FFAA5E",
"@ c #FFD4A3",
/* pixels */
"ooXoooOOOOOO+OOOOOOOOOOOOOOOO++OOOOOOOOOOOOOOOOOOOoOO+OOOOOOOOO@",
"oo.oooOOooOOOOoOOOOooOoOOOOOOOOOOOOOoooOoOOOOOOOOooOOOOOOOOOOooo",
"ooXoooooooooooooooooooooXXXXXXXXXXXXXXXXXXXXXXXXXXXooXoooooXoooo",
"oooXXXXXXXXXXXXXXX.XXXXXXXXXXXXXXXXXXXXXXXXXXXXXXXXooXoXXXXXXooo",
"oooXXXXXXXXXXo...  ooXXXXXXXXXXXXXXXXXXXXXXXXXXXXXXXX.XoooXXXooo",
"XooXXXXXXXXXXXX.. XXXXXXXXoXXXXXXXXXXXXXXXXXXXXXXXXXXXXXooooooXX",
"++++++++++++oXoo XXoO++OOOOO++++oXo++++ooXXXXXXXXo++++++++++++++",
"O+O++O+++++++ooo XoO+++++O+++O+++o+++++++oXo++++++++++++++++++++",
"@@@@@OOO+O++++Xo.XO+O++OOOOOOOOOOOOOOOOO+++++OO+O+++++++++OOOOOO",
"OOOOOOOOOOOO+OX.oXO+OOOOOOOOOOOOOOOOOOOOOOOOOOOOOOOOOOOOOOOOOOOO",
"OOOOOOOOOOOOO+X.XX+OOOOOOOOOOOOOOOOOOOOOOOOOOOOOOOOOOOOOOOOOOOOO",
"OOOOOOOOOOOOO+X.XX+OOOOOOOOOOOoooooOOOOOOOOOOOOOOOOOOOOOOOOOOOOO",
"OOOOOOOOOOOO++XXXX+OOOOOOOOO++@@++OoOOOOOOOOOOOOOOOOOOOOOOOOOOOO",
"oOOOOOOOOOOO++XXXX++OOOOOOOOOOOOOOOOOOOOOOOOOOOOOOOOOOOOOOOOOOOO",
"OOOOOOOOOOOOO+XXXX++OOOOOOOOOOOOOOOOOOOOOOOOOOOOOOOOOOOOOOOOOOOO",
"OOOOOOOOOOOO++XXXXO+OOOOOOOOOOOOOOOOOOOOOOOOoOOOOOOOOOOOOOOOOOOO",
"OOOOOOOoOOOOO+XXXX++OOOOOOOOOOOOOOOOOOooOOOoOOOOOOOOOOOOOOOOoooo",
"OOOOOO+oOOOOO+XoXX+OOOOOOOOOOOOOOOOOOOOOooX+OOOOOOOOOOOOOOOo++++",
"OOOOOOOOOOOO++XoXX++OOOOOOOOOOOOOOOOOOooo++oooOOOOOOOOOOOO+++++O",
"+OOOOOOOooOO++XXXX++OOoOOOOOOOOOOOOOOOOOOOOOOOOOOOOOOOOOOOOOOOOO",
"OOOOOOooooooo+XXXX+ooooOOOOOOOOOOOOOOOOOOOOOOOOOOOoOOOooOOOoOOOO",
"ooooOooooooooXXXXXoooooooooooooooOOOooooOooooooooXXooooooooooOoo",
"ooooooooooooXXXXXXXXXXoooooXXooooooooooooooX........oooo.ooooooo",
"XXXXXX..........................................................",
"XXXX.. .......................X...  ............X...............",
". .... .XXX.....X...........XXXX....X......XX..X................",
"XXXXXX..........................X  .......................X.X...",
"+o+OoooOOXXOOOOOX.XOOOOOOoooXX..X  .XooXX.X...XoOOOX.XoOOOOOOOOO",
"+O++++OOOOOOOOOOOOOOoOOOOOOOOOX.X...OOOOOOOOOOOOOOOOOOOOOOOOoOOO",
"OOOOOOOOOooOOOOOoOOOooooOOOOOOX..X..OOOOOOooOoOOOoOOOOOoooOooooo",
"OOOOOOoooooooooooooooooooooooOo..X.XOoooooooooooooooooooooXooooo",
"OOOOOOOooooooooooooooooooooooOo.o..Xoooooooooooooooooooooooooooo",
"OOOOOoOooooooooooooooooooooooOO.X..oOooooooooooooooooooooooooooo",
"OOOOOoooooooooooooooooooooooooO..X.oOooooooooooooooooooooooooooo",
"OOOOO+ooooooooooooX.oooooooooOO....OOooooooooooooooooooooooooooo",
"OOOOOOoooooooooooooXooooooooooO....Ooooooooooooooooooooooooooooo",
"OOOOOOOoooooooooooooXOooooooooo....OooooooooooooooooooooooooXXoX",
"OOOOOOOooooooooooooooOooooooooO....OOooooooooooooooooooooOXXXoXX",
"OOOOOOOooooooooooooooooooooooOO....oOoooooooooooooooooooooOOOOOO",
"OOOOOOOooooooooooooooooooooooOO....OOooooooooooooooooooooooooooo",
"OOOOOoOooooooooooooooooooooooOO.. .OOooooooooooooooooooooooooooo",
"OoOOOooooooooooooooooooooooooOO.. .OOooooooooooooooooooooooooooo",
"ooooOOoXoooXXXoXXXXoooooooooXOO.X..OXXoXXooXXXoXXXoooXoXXXoooooX",
"ooooooooXXXXXXXoXXXXXXXXXXXXXXO.X. XXXXXXXXXXXXXXXXXXXXXXXXXXXXX",
"oooXXXXX.....XXXXX.XXXXXXXXXX...X.  .XXXXXXXX.XXXXXXXX...XXXXXX.",
"XXXXX.........................XXX.   .............              ",
"XXXXX......................XXXXXX..   ..X                       ",
"oXXXo.....................X..oXXXX.. ..X.    ....               ",
"XOOX......................XX..                                  ",
"XoOX.oXX.XOOOOOOOOOXX...XOOOOoooooooo. .o.     .ooooooooooooooo.",
"XXoX.XOOOOOOOoOOOOOOOOOOOOOOOooooooooooooooooooooooooo.ooooooooo",
"XXOX.OOOoooooooooOOOooooOOOooXXXXXooooXoooooooooooooooXXoooooooo",
"oXoXXOoooooooooooooooooooXXXXXXXXXXXXXXXXXXXXXXXXXXo.XXXXXXXXXXo",
"oXXXXOooooooooooooooooooXXXXXXXXXXXXXXXXXXXXXXXXXXXXXXXXXXXXXXXo",
"oXoXXOooooooooooooooooooXXXXXXXXXXXXXXXXXXXXXXXXXXXXXXXXXXXXXXXX",
"oXoXXOooooooooooooooooooXXXXXXXXXXXXXXXXXXXXXXXXXXXXXXXXXX XXXXX",
"oXXXXOOoooooooooOOXoooooXXXXXXXXXXXXXXXXXXXXXO.XXXXXXXXXXX.XXXXo",
"oXXXXOOoooooooOoXXoooooooXXXXXXXXXXXXXXXXXXXo.XXXXXXXXXXXXXXXXXo",
"oXXXXoOooooooooooooooooooXXXXXXXXXXXXXXXXXXXoXXXXXXXXXXXXXXXXXXX",
"oXXXXoOooooooooooooooooooooXXXXXXXXXXXXXXXXXXXXXXXXXXXXXXXXXXXXX",
"oXXoXOOoooooooooooooooooooXXXX.XXXXXXXXXXXXXXXXXXXXXXXXXXXXXXXXo",
"oXXXXOOooXoooooooooooooooXXXXX.XXXXXXXXXXXXXXXXXXXXXXXXXXXXXXXXo",
"oXXXXOOoooXoooooooooooooooooXXXXXXXXXXXXXXXXXXXXXXXXXXXX..XXXXXo",
"oXoXXOXXXXXXXoooooXXXXXXXooXXXXXXXXXX....XXX..XXX.XXXXXXXX....oo"
};
