/* XPM */
static char *result[] = {
/* columns rows colors chars-per-pixel */
"64 64 5 1 ",
"  c #0D2B45",
". c #203C56",
"X c #544E68",
"o c #8D697A",
"O c #D08159",
/* pixels */
"                 .                                              ",
"                ..                                      .       ",
"                 .                                              ",
"                                                                ",
"                 .     .                                        ",
"                ..     .                                        ",
"                ..     .                                        ",
"                ..     .                                        ",
"                ..     .                                        ",
"                ..      ..  ..   .    ....   .                  ",
"                 .         ............                         ",
"                        ........ .....................          ",
"                        ............. ...............           ",
"                       .   .         ...............            ",
"                          .     ....                            ",
"                                                    .           ",
"            ........XXXX  .o.     .ooXXXXXXXXXoXo               ",
" .......................XooOoooooOoOOOOOXoooooooX.         .....",
"........  .... .........oXoooooooooooooooooXoXXooXo     ....... ",
".......................XXXXXoXXXoooooooooooooooXXXo.    ..      ",
".. ................XXXXXXXXXXooXooooooooooooOOooOXoo    .       ",
"  ....      ........XXXooooooXooooooooOOoooooooO.oXo    .       ",
". ..  .....  X.XXXXX.XXXOXXXOOOOOOOOOOXXXXXXXXX.XXXo    .       ",
"              .........XXXXXXo  XXXXXXXXXXXXXXX.XXoo    ..      ",
" .            ........XXXXXXXXoo XXXXXXXXXXXXXXXXXoo    ..      ",
" .  .          .......XXXXXXXXXXXXXXXXXXXXXXXXXXXXXo     .      ",
"               ......XXXXXXXXXXXXXXXXXXXXX.XXXXX.XXo     .      ",
"              .......XXXXXXXXXXXXXXXXXXXXX.XXXXXXXoo    ..      ",
"                .  ...XXXXXXXXXXXXXXXXXXXXXXXXXXXXoo    ..      ",
"                 .......XXXXXXXXXXXXXXXXXXX..XXXXXoo    ...     ",
"                ....XXXX....XXX..XXX.XXXXXXXX....oo.    .       ",
"                    ..................X.X.........o             ",
"                    ...   . .......... .........                ",
"                                                   .            ",
"                                                  ..            ",
"                                          ...                  .",
"                                                                ",
"       .XXXXXXXXXXX   XXXX           X XXXXXXXXXXXXXXXXXXXXXXXX ",
"      .XXXXX.XXX.XXX XXXXXXX   XXXXXXX.XXXXXXX   XX.X.XX XXXXXXX",
"     .X.XX............XX...XXXXX..X.XX.XXX.................X.XXX",
"     .X...................................X....................X",
"     X................................  ........................",
"     X..........................................................",
"     X........  ..X ...........................................X",
"     XX.......X  ..X...........................................X",
"     .X....... X.....................................  .........",
"      X....................................................... X",
"     .X.........................................................",
"     ...........................................................",
"     XX........................................................X",
"     XX.. .................................................  ..X",
"     X    ...........    ......    ......  .   ..........       ",
"                    ...    .          .         .               ",
"                                                                ",
"                                                                ",
"                                                                ",
"                                                                ",
"                                                                ",
"                                   ...    ........ . .    ..  . ",
"                       ........................ .... .......... ",
"                       ......  . ... .....               ...    ",
"                       .              .                         ",
"                                                                ",
"                       .                                        "
};
