/* XPM */
static char *result[] = {
/* columns rows colors chars-per-pixel */
"64 64 5 1 ",
"  c #0D2B45",
". c #203C56",
"X c #544E68",
"o c #8D697A",
"O c #D08159",
/* pixels */
"ooXXXX.XXX.XXX...X......X.......oo    X  .  ..   .   .....   ...",
"OOOoooooooX.......X..............o                    .         ",
"OOOOOoooooo     ..... ..........                                ",
"......                           . .                            ",
".....                         .....                             ",
"                             . ... .                            ",
"                                                                ",
"OOX..X  X.. .ooooooooo..   .oooooooXXXXX   X       XXX XXXXXXXXX",
"OOO. .  .oooooooXooooooooooooooooooXXXXXXXXXXXXXXXXXXXXXX XXXXXX",
"OOO. X  oooooooXXooXoooXXXXoooXX.....XXXX.XXXXXXXXXXXXXXX..XXXXX",
"ooOX .  oXXXXXXXXXXXXXXXXXXXXXX.................................",
"ooXX    oXXXXXXXXXXXXXXXXXXXXX..................................",
"oooX .  oXXXXXXXXXXXXXXXXXXX....................................",
"oooX .  oXXXXXXXXXXXXXXXXXoooXX.................................",
"ooXX    ooXXXXXXXXXXXXXXXXXXX...................................",
"ooXX    ooXXXXXXXXXXo.XXXXXXXX..................................",
"oooX    XoXXXXXXXXXo.XXXXXXXXXX.................................",
"ooXX    XoXXXXXXXXXXXXXXXXXXXXX.................................",
"ooXX  . ooXXXXXXXXXXXXXXXXXXXX..................................",
"ooXX.   ooXX.XXXXXXXXXXXXXXXXXX.................................",
"ooOX.   ooXXX.XXXXXXXXXXXXXXX..............................  ...",
"XOOX..  o.......XXXXX.......XX...X......    ...  ... ........   ",
"OoO...   ......X................XX.                     .       ",
".....    ..  .... ....  . .........                             ",
"....                                                            ",
". ...                                                           ",
" XXX.                 .                                         ",
"....X                                                           ",
"OOOOOoooooooooo.      .Xooooooooooo.  XXXX           XXXXXXXXXXX",
".OOoOXooXooooooo.    .XoooooXoooXooo XXXXXXX   XXXXXXXXXXXXXXXXX",
"oooooXXXXXXoXoooo    XoXooXXXXXXXXXX..XX...XXXXX..X.XXXXXX....X.",
"ooooooXXXXXXXXXoX    XoXXXXXXXXXXXXX......................X.....",
"oooooXXXXXXXXXXXo    oXXXXXXXXXXX.XX............................",
"ooooooXXXX.XXXXXo    oXXXXXXXXX..XX.X..............  ....... ...",
"ooooooXXXo.XXXXoo    oXXXXXXXX.XXXXXX............   ......  ....",
"ooooooXXXXoXXXXoo    ooXXXXXXXXXXXX.............  ......   .....",
"oooooXXXXXXXXXXXo    ooXXXXXXXXXXXX.................... ........",
"ooooooXXXXXXXXXoo    XoXXXXXXXXXXXXX............................",
"ooooOoXXXXXXXXXXo    ooXXXXXXXXXXXXX............................",
"oooooXXXXXXXXXXXo    oXXXXXXXXXXXXXXX...........................",
"oooOXXXXXXXXXXXoo    ooXXXXXXXXXXXXX............................",
"ooooXXXXXXX..XXoo    ooXX.XXXXXXXXXX............................",
"ooooXXXXX.......o    o....XXXXXXXXXX.    ......    ......  .   .",
"oooo.XXX........     ..................    .                    ",
"OOoooooXXXX....          .....  ....                            ",
"....                                                            ",
"...                                                             ",
"            ..                                                  ",
"                                                                ",
"oooo.oX..Xoo..ooooo. .ooooooXXX..      .XX.. .   .Xooo  ........",
"ooooXooooooooooooooooooXooooooooo.     ooooooooooooooo.........X",
"XXXXXXXXXoooXXoooooXoooXXXXoooooo.   ..ooooooXXoXoooXoXXXXXX..XX",
"XXXXXXXXXXXXXXXXXXXXXXXXXXXXXXXXoX    .OXXXXXXXXXXXXXXXXXXXXX.XX",
"XXXXXXXXXXXXXXXXXXXXXXXXXXXXXXXXoX    .oXXXXXXXXXXXXXXXXXXXXXXXX",
"XXXXXXXXXXXXXXXXXXXXXXXXXXXXXXXXoo    XOXXXXXXXXXXXXXXXXXXXXXXXo",
"XXXXXXXXXXXXXXXXXXXXXXXXXXXXXXXXXo    XOXXXXXXXXXXXXXXXXXXXXXXXo",
"XXX..XXXXXXXXXXXXXXXXXXXX.XXXXXXoo    oOXXXXXXXXXX.XXXXXXXXXXXXX",
"XXX..XXXXXXXXXXXXXXXXXXXoXXXXXXXXo    ooXXXXXXXXX.XXXXXXXXXXXXXX",
"XXXo...XXXXXXXXXXXXXXXXXXXXXXXXXXX    ooXXXXXX...oXXXXXXXXXXXXXX",
"XXXXOo.. XXXXXXXXXXXXXXXXXXXXXXXXo    ooXXXXXXoooXXXXXXXXXXXXXoX",
"XXXXXXXXXXXXXXXXXXXXXXXXXXXXXXXXoo    XoXXXXXXXXXXXXXXXXXXXoooXX",
"XXXXXXXXXXXXXXXXXXXXXXXXXXXXXXXXoo    ooXXXXXXXXXXXXXXXXXXOoXXXX",
"XXXXXXXXXXXXXXXXXXXXXXXXXXXXXXXXoo    ooXXXXXXXXXXXXXXXXXXXXXXXX",
"XXooXooXoooXooOoXXooXXoooooooooXoo    oooXXXXXXXXXXXXXXXXXooXXXX"
};
